<?xml version="1.0" encoding="utf-8"?>
<!-- Generator: Adobe Illustrator 24.0.0, SVG Export Plug-In . SVG Version: 6.00 Build 0)  -->
<svg version="1.1" id="Calque_1" xmlns="http://www.w3.org/2000/svg" xmlns:xlink="http://www.w3.org/1999/xlink" x="0px" y="0px"
	 viewBox="0 0 500 200" style="enable-background:new 0 0 500 200;" xml:space="preserve">
<style type="text/css">
	.st0{opacity:0.2;}
	.st1{fill:none;stroke:#0000FF;stroke-miterlimit:10;}
	.st2{fill:none;stroke:#3FA9F5;stroke-miterlimit:10;}
	.st3{fill:#BDE1FF;fill-opacity:0.5;}
	.st4{opacity:0.4;}
	.st5{fill:#E52C2E;}
	.st6{fill:#FFEAE5;fill-opacity:0.3;}
	.st7{fill:#E52C2E;fill-opacity:0.9;}
	.st8{fill:#FFFFFF;}
	.st9{opacity:0.3;}
	.st10{fill:#3C3C3B;}
	.st11{opacity:0.5;}
	.st12{fill:#1D1D1B;}
	.st13{fill:#000100;}
	.st14{fill:#293172;}
	.st15{fill:none;stroke:#0000FF;stroke-width:0.5;stroke-miterlimit:10;}
	.st16{fill:#B1B1B1;}
	.st17{fill:#89C1FF;}
	.st18{fill:#293172;fill-opacity:0.5;}
	.st19{fill:#BDE1FF;}
	.st20{font-family:'ArialMT';}
	.st21{font-size:25.9635px;}
	.st22{fill-rule:evenodd;clip-rule:evenodd;fill:#E52C2E;fill-opacity:0.9;}
	.st23{fill:none;stroke:#0000FF;stroke-width:3;stroke-miterlimit:10;}
	.st24{fill:none;stroke:#0000FF;stroke-width:3;stroke-miterlimit:10;stroke-dasharray:8.363,8.363;}
	.st25{fill:none;stroke:#0000FF;stroke-width:3;stroke-miterlimit:10;stroke-dasharray:12.2854,12.2854;}
	.st26{fill:none;stroke:#0000FF;stroke-width:3;stroke-miterlimit:10;stroke-dasharray:10.8596,10.8596;}
	.st27{fill:none;stroke:#0000FF;stroke-width:3;stroke-miterlimit:10;stroke-dasharray:12.8107,12.8107;}
	.st28{fill-rule:evenodd;clip-rule:evenodd;fill:#2E3192;stroke:#2E3192;stroke-width:3;stroke-miterlimit:10;}
</style>
<g class="st0">
	<circle class="st1" cx="144.7" cy="45.6" r="20"/>
	<circle class="st1" cx="55" cy="39.5" r="5.9"/>
	<circle class="st2" cx="52.2" cy="117.3" r="11.9"/>
	<circle class="st3" cx="97.1" cy="85.8" r="11.9"/>
	<g id="ALERT_1_" class="st4">
		<rect x="150.1" y="82.2" class="st3" width="10.4" height="70.2"/>
		<rect x="82.1" y="137.6" class="st5" width="63.4" height="10.9"/>
		<rect x="91.2" y="137.6" class="st6" width="54.3" height="10.9"/>
		<polygon class="st7" points="97.7,143.1 91,137.6 91,148.6 		"/>
		<path class="st8" d="M91,145.4l-2.9-4.8c-0.1-0.1-0.1-0.2-0.2-0.2c-0.1,0-0.2,0-0.2,0.1l-2.9,4.9c-0.1,0.1-0.1,0.2,0,0.3
			c0,0.1,0.1,0.2,0.2,0.2h5.9c0.1,0,0.2-0.1,0.2-0.2C91,145.6,91,145.5,91,145.4z M88.1,141.6l-0.1,2.5h-0.3l-0.1-2.5H88.1z
			 M87.8,145.1c-0.2,0-0.3-0.1-0.3-0.3c0-0.2,0.1-0.3,0.3-0.3c0.2,0,0.3,0.1,0.3,0.3C88.1,145,88,145.1,87.8,145.1z"/>
		<rect x="102.1" y="141.9" class="st7" width="36.6" height="2.5"/>
	</g>
	<g id="LIST_1_" class="st9">
		<rect x="73.2" y="1.9" class="st3" width="33.9" height="16.9"/>
		<circle class="st10" cx="78.9" cy="6.6" r="1"/>
		<rect x="81.3" y="6" class="st10" width="20.8" height="1.3"/>
		<circle class="st10" cx="78.9" cy="10.3" r="1"/>
		<rect x="81.3" y="9.6" class="st10" width="20.8" height="1.3"/>
		<circle class="st10" cx="78.9" cy="14.1" r="1"/>
		<rect x="81.3" y="13.4" class="st10" width="20.8" height="1.3"/>
	</g>
	<g id="PASS_1_" class="st11">
		<rect x="153.9" y="20.8" class="st3" width="31.8" height="12.9"/>
		<rect x="147" y="26.2" class="st8" width="32.7" height="5.4"/>
		<rect x="169.8" y="27.2" class="st12" width="0.4" height="3.5"/>
		<path class="st13" d="M175.3,30.3v-1.8c0-0.1,0-0.2,0.1-0.2s0.1-0.1,0.2-0.1h0.3v-0.6c0-0.2,0.1-0.3,0.2-0.4
			c0.1-0.1,0.3-0.2,0.4-0.2h0.9c0.2,0,0.3,0.1,0.4,0.2c0.1,0.1,0.2,0.3,0.2,0.4v0.6h0.3c0.1,0,0.2,0,0.2,0.1
			c0.1,0.1,0.1,0.1,0.1,0.2v1.8c0,0.1,0,0.2-0.1,0.2c-0.1,0.1-0.1,0.1-0.2,0.1h-2.7c-0.1,0-0.2,0-0.2-0.1
			C175.3,30.5,175.3,30.4,175.3,30.3L175.3,30.3z M176.5,28.3h0.9v-0.4c0,0,0-0.1,0-0.1c0,0-0.1,0-0.1,0h-0.6c0,0-0.1,0-0.1,0
			c0,0,0,0.1,0,0.1L176.5,28.3L176.5,28.3z"/>
		<circle class="st14" cx="149.1" cy="28.9" r="0.7"/>
		<circle class="st14" cx="151.2" cy="28.9" r="0.7"/>
		<circle class="st14" cx="153.3" cy="28.9" r="0.7"/>
		<circle class="st14" cx="155.3" cy="28.9" r="0.7"/>
		<circle class="st14" cx="157.4" cy="28.9" r="0.7"/>
		<circle class="st14" cx="159.5" cy="28.9" r="0.7"/>
		<circle class="st14" cx="161.6" cy="28.9" r="0.7"/>
		<circle class="st14" cx="163.6" cy="28.9" r="0.7"/>
		<circle class="st14" cx="165.7" cy="28.9" r="0.7"/>
		<circle class="st14" cx="167.8" cy="28.9" r="0.7"/>
	</g>
	<rect x="20.6" y="31.4" class="st3" width="70.9" height="4.4"/>
	<rect x="12.7" y="81.8" class="st15" width="10.5" height="10.5"/>
	<path class="st14" d="M8,34.3l3,3l5.9-5.9l-1.5-1.5l-4.4,4.4l-1.5-1.5L8,34.3z"/>
	<g id="MODAL_1_" class="st11">
		<rect x="48.3" y="167.6" class="st3" width="37.8" height="18.9"/>
		<g>
			<rect x="56" y="170.1" class="st14" width="22.5" height="3.4"/>
			<rect x="56" y="173.5" class="st8" width="22.5" height="9.9"/>
			<g>
				<rect x="56.8" y="171.3" class="st8" width="11.8" height="1"/>
			</g>
			<g>
				<rect x="56.8" y="175" class="st16" width="11.8" height="1"/>
			</g>
			<g>
				<rect x="56.8" y="176.9" class="st16" width="18.8" height="1"/>
			</g>
		</g>
		<path class="st8" d="M77.6,171.1l-0.5,0.5l-0.5-0.5l-0.1,0.1l0.5,0.5l-0.5,0.5l0.1,0.1l0.5-0.5l0.5,0.5l0.1-0.1l-0.5-0.5l0.5-0.5
			L77.6,171.1z"/>
		<rect x="73.2" y="180.9" class="st14" width="4.5" height="1.7"/>
	</g>
	<circle class="st17" cx="193.9" cy="103.5" r="5.9"/>
	<circle class="st14" cx="193.9" cy="103.5" r="2.3"/>
	<circle class="st5" cx="56.8" cy="58.4" r="19"/>
	<circle class="st18" cx="14.9" cy="154.3" r="2.3"/>
	<g>
		<text transform="matrix(1 0 0 1 163.54 85.7746)" class="st19 st20 st21">Aa</text>
	</g>
</g>
<g class="st11">
	<circle class="st1" cx="298.8" cy="51.3" r="20"/>
	<circle class="st1" cx="188.4" cy="21.7" r="5.9"/>
	<circle class="st2" cx="153.7" cy="109.2" r="11.9"/>
	<circle class="st3" cx="163.3" cy="118.9" r="11.9"/>
	<g id="ALERT" class="st4">
		<rect x="334.4" y="110.2" class="st3" width="10.4" height="70.2"/>
		<rect x="266.3" y="165.6" class="st5" width="63.4" height="10.9"/>
		<rect x="275.4" y="165.6" class="st6" width="54.3" height="10.9"/>
		<polygon class="st7" points="281.9,171 275.2,165.6 275.2,176.5 		"/>
		<path class="st8" d="M275.2,173.3l-2.9-4.8c-0.1-0.1-0.1-0.2-0.2-0.2c-0.1,0-0.2,0-0.2,0.1l-2.9,4.9c-0.1,0.1-0.1,0.2,0,0.3
			c0,0.1,0.1,0.2,0.2,0.2h5.9c0.1,0,0.2-0.1,0.2-0.2C275.3,173.5,275.2,173.4,275.2,173.3z M272.3,169.5l-0.1,2.5h-0.3l-0.1-2.5
			H272.3z M272,173.1c-0.2,0-0.3-0.1-0.3-0.3c0-0.2,0.1-0.3,0.3-0.3c0.2,0,0.3,0.1,0.3,0.3C272.3,172.9,272.2,173.1,272,173.1z"/>
		<rect x="286.3" y="169.9" class="st7" width="36.6" height="2.5"/>
	</g>
	<g id="LIST" class="st9">
		<rect x="227.3" y="7.6" class="st3" width="33.9" height="16.9"/>
		<circle class="st10" cx="233" cy="12.3" r="1"/>
		<rect x="235.4" y="11.7" class="st10" width="20.8" height="1.3"/>
		<circle class="st10" cx="233" cy="16" r="1"/>
		<rect x="235.4" y="15.3" class="st10" width="20.8" height="1.3"/>
		<circle class="st10" cx="233" cy="19.8" r="1"/>
		<rect x="235.4" y="19.1" class="st10" width="20.8" height="1.3"/>
	</g>
	<g id="PASS" class="st11">
		<rect x="308" y="26.5" class="st3" width="31.8" height="12.9"/>
		<rect x="301.1" y="31.9" class="st8" width="32.7" height="5.4"/>
		<rect x="323.9" y="32.9" class="st12" width="0.4" height="3.5"/>
		<path class="st13" d="M329.4,36v-1.8c0-0.1,0-0.2,0.1-0.2s0.1-0.1,0.2-0.1h0.3v-0.6c0-0.2,0.1-0.3,0.2-0.4s0.3-0.2,0.4-0.2h0.9
			c0.2,0,0.3,0.1,0.4,0.2s0.2,0.3,0.2,0.4V34h0.3c0.1,0,0.2,0,0.2,0.1c0.1,0.1,0.1,0.1,0.1,0.2V36c0,0.1,0,0.2-0.1,0.2
			c-0.1,0.1-0.1,0.1-0.2,0.1h-2.7c-0.1,0-0.2,0-0.2-0.1C329.4,36.2,329.4,36.1,329.4,36L329.4,36z M330.6,34h0.9v-0.4
			c0,0,0-0.1,0-0.1c0,0-0.1,0-0.1,0h-0.6c0,0-0.1,0-0.1,0c0,0,0,0.1,0,0.1L330.6,34L330.6,34z"/>
		<circle class="st14" cx="303.2" cy="34.6" r="0.7"/>
		<circle class="st14" cx="305.3" cy="34.6" r="0.7"/>
		<circle class="st14" cx="307.4" cy="34.6" r="0.7"/>
		<circle class="st14" cx="309.4" cy="34.6" r="0.7"/>
		<circle class="st14" cx="311.5" cy="34.6" r="0.7"/>
		<circle class="st14" cx="313.6" cy="34.6" r="0.7"/>
		<circle class="st14" cx="315.6" cy="34.6" r="0.7"/>
		<circle class="st14" cx="317.7" cy="34.6" r="0.7"/>
		<circle class="st14" cx="319.8" cy="34.6" r="0.7"/>
		<circle class="st14" cx="321.9" cy="34.6" r="0.7"/>
	</g>
	<rect x="174.7" y="37.1" class="st3" width="70.9" height="4.4"/>
	<rect x="166.8" y="87.5" class="st15" width="10.5" height="10.5"/>
	<path class="st14" d="M162.1,40l3,3l5.9-5.9l-1.5-1.5l-4.4,4.4l-1.5-1.5L162.1,40z"/>
	<g id="MODAL" class="st11">
		<rect x="202.4" y="173.3" class="st3" width="37.8" height="18.9"/>
		<g>
			<rect x="210.1" y="175.8" class="st14" width="22.5" height="3.4"/>
			<rect x="210.1" y="179.2" class="st8" width="22.5" height="9.9"/>
			<g>
				<rect x="210.9" y="177" class="st8" width="11.8" height="1"/>
			</g>
			<g>
				<rect x="210.9" y="180.7" class="st16" width="11.8" height="1"/>
			</g>
			<g>
				<rect x="210.9" y="182.6" class="st16" width="18.8" height="1"/>
			</g>
		</g>
		<path class="st8" d="M231.7,176.8l-0.5,0.5l-0.5-0.5l-0.1,0.1l0.5,0.5l-0.5,0.5l0.1,0.1l0.5-0.5l0.5,0.5l0.1-0.1l-0.5-0.5l0.5-0.5
			L231.7,176.8z"/>
		<rect x="227.3" y="186.6" class="st14" width="4.5" height="1.7"/>
	</g>
	<circle class="st17" cx="348" cy="109.2" r="5.9"/>
	<circle class="st14" cx="348" cy="109.2" r="2.3"/>
	<circle class="st5" cx="156.9" cy="74.5" r="3.1"/>
	<circle class="st18" cx="169" cy="160" r="2.3"/>
	<g>
		<text transform="matrix(1 0 0 1 317.6311 91.4765)" class="st19 st20 st21">Aa</text>
	</g>
</g>
<g class="st0">
	<circle class="st1" cx="446.6" cy="141.6" r="20"/>
	<circle class="st1" cx="364.7" cy="46.6" r="5.9"/>
	<circle class="st2" cx="361.9" cy="124.4" r="11.9"/>
	<circle class="st3" cx="406.8" cy="92.8" r="11.9"/>
	<g id="ALERT_2_" class="st4">
		<rect x="441.3" y="-34.2" class="st3" width="10.4" height="70.2"/>
		<rect x="373.2" y="21.2" class="st5" width="63.4" height="10.9"/>
		<rect x="382.4" y="21.2" class="st6" width="54.3" height="10.9"/>
		<polygon class="st7" points="388.9,26.6 382.2,21.2 382.2,32.1 		"/>
		<path class="st8" d="M382.2,28.9l-2.9-4.8c-0.1-0.1-0.1-0.2-0.2-0.2c-0.1,0-0.2,0-0.2,0.1l-2.9,4.9c-0.1,0.1-0.1,0.2,0,0.3
			c0,0.1,0.1,0.2,0.2,0.2h5.9c0.1,0,0.2-0.1,0.2-0.2C382.2,29.1,382.2,29,382.2,28.9z M379.2,25.1l-0.1,2.5h-0.3l-0.1-2.5H379.2z
			 M379,28.7c-0.2,0-0.3-0.1-0.3-0.3c0-0.2,0.1-0.3,0.3-0.3c0.2,0,0.3,0.1,0.3,0.3C379.3,28.5,379.2,28.7,379,28.7z"/>
		<rect x="393.3" y="25.5" class="st7" width="36.6" height="2.5"/>
	</g>
	<g id="LIST_2_" class="st9">
		<rect x="382.9" y="9" class="st3" width="33.9" height="16.9"/>
		<circle class="st10" cx="388.6" cy="13.7" r="1"/>
		<rect x="391" y="13" class="st10" width="20.8" height="1.3"/>
		<circle class="st10" cx="388.6" cy="17.3" r="1"/>
		<rect x="391" y="16.7" class="st10" width="20.8" height="1.3"/>
		<circle class="st10" cx="388.6" cy="21.2" r="1"/>
		<rect x="391" y="20.5" class="st10" width="20.8" height="1.3"/>
	</g>
	<g id="PASS_2_" class="st11">
		<rect x="403.9" y="63.8" class="st3" width="59.4" height="24.1"/>
		<rect x="390.9" y="73.9" class="st8" width="61.1" height="10.1"/>
		<rect x="433.6" y="75.8" class="st12" width="0.7" height="6.5"/>
		<path class="st13" d="M443.9,81.7v-3.3c0-0.2,0.1-0.3,0.2-0.4c0.1-0.1,0.2-0.2,0.4-0.2h0.5v-1.1c0-0.3,0.1-0.6,0.3-0.8
			c0.2-0.2,0.5-0.3,0.8-0.3h1.7c0.3,0,0.6,0.1,0.8,0.3c0.2,0.2,0.3,0.5,0.3,0.8v1.1h0.6c0.1,0,0.3,0.1,0.4,0.2
			c0.1,0.1,0.2,0.2,0.2,0.4v3.3c0,0.2-0.1,0.3-0.2,0.4c-0.1,0.1-0.2,0.2-0.4,0.2h-5c-0.2,0-0.3-0.1-0.4-0.2
			C443.9,81.9,443.9,81.8,443.9,81.7L443.9,81.7z M446.1,77.8h1.7V77c0-0.1,0-0.1-0.1-0.2c-0.1-0.1-0.1-0.1-0.2-0.1h-1.1
			c-0.1,0-0.1,0-0.2,0.1s-0.1,0.1-0.1,0.2L446.1,77.8L446.1,77.8z"/>
		<circle class="st14" cx="394.9" cy="78.9" r="1.4"/>
		<circle class="st14" cx="398.8" cy="78.9" r="1.4"/>
		<circle class="st14" cx="402.7" cy="78.9" r="1.4"/>
		<circle class="st14" cx="406.5" cy="78.9" r="1.4"/>
		<circle class="st14" cx="410.4" cy="78.9" r="1.4"/>
		<circle class="st14" cx="414.3" cy="78.9" r="1.4"/>
		<circle class="st14" cx="418.1" cy="78.9" r="1.4"/>
		<circle class="st14" cx="422" cy="78.9" r="1.4"/>
		<circle class="st14" cx="425.9" cy="78.9" r="1.4"/>
		<circle class="st14" cx="429.7" cy="78.9" r="1.4"/>
	</g>
	<rect x="330.3" y="38.5" class="st3" width="70.9" height="4.4"/>
	<rect x="322.4" y="88.9" class="st15" width="10.5" height="10.5"/>
	<path class="st14" d="M317.7,41.4l3,3l5.9-5.9l-1.5-1.5l-4.4,4.4l-1.5-1.5L317.7,41.4z"/>
	<g id="MODAL_2_" class="st11">
		<rect x="371.7" y="138.8" class="st3" width="91.3" height="45.6"/>
		<g>
			<rect x="390.2" y="144.7" class="st14" width="54.3" height="8.3"/>
			<rect x="390.2" y="152.9" class="st8" width="54.3" height="23.9"/>
			<g>
				<rect x="392.1" y="147.6" class="st8" width="28.4" height="2.5"/>
			</g>
			<g>
				<rect x="392.1" y="156.5" class="st16" width="28.4" height="2.5"/>
			</g>
			<g>
				<rect x="392.1" y="161.1" class="st16" width="45.3" height="2.5"/>
			</g>
		</g>
		<path class="st8" d="M442.2,147.2l-1.3,1.3l-1.3-1.3l-0.3,0.3l1.3,1.3l-1.3,1.3l0.3,0.3l1.3-1.3l1.3,1.3l0.3-0.3l-1.3-1.3l1.3-1.3
			L442.2,147.2z"/>
		<rect x="431.7" y="170.7" class="st14" width="10.8" height="4.1"/>
	</g>
	<circle class="st17" cx="503.6" cy="110.6" r="5.9"/>
	<circle class="st14" cx="503.6" cy="110.6" r="2.3"/>
	<circle class="st5" cx="312.5" cy="75.8" r="3.1"/>
	<circle class="st18" cx="324.6" cy="161.4" r="2.3"/>
	<g>
		<text transform="matrix(1 0 0 1 473.2313 92.849)" class="st19 st20 st21">Aa</text>
	</g>
</g>
<g>
	<path class="st22" d="M266.7,56h37l-79.4,95h-37L266.7,56z"/>
	<g>
		<g>
			<polyline class="st23" points="289.2,132.8 289.2,137.1 284.8,137.1 			"/>
			<line class="st24" x1="278.8" y1="137.1" x2="269.7" y2="137.1"/>
			<polyline class="st23" points="266.7,137.1 262.4,137.1 259.6,140.4 			"/>
			<polyline class="st23" points="253.6,147.7 250.8,151 255.1,151 			"/>
			<line class="st25" x1="264" y1="151" x2="295" y2="151"/>
			<polyline class="st23" points="299.4,151 303.7,151 303.7,146.7 			"/>
			<line class="st26" x1="303.7" y1="138.9" x2="303.7" y2="95.8"/>
			<polyline class="st23" points="303.7,91.9 303.7,87.5 301,90.9 			"/>
			<polyline class="st27" points="295.1,98 289.2,105 289.2,128.2 			"/>
		</g>
	</g>
	<polygon class="st28" points="201.9,69.9 228.7,69.9 240.3,56 187.3,56 187.3,119.5 201.9,102 	"/>
</g>
</svg>
