<?xml version="1.0" encoding="utf-8"?>
<!-- Generator: Adobe Illustrator 24.0.0, SVG Export Plug-In . SVG Version: 6.00 Build 0)  -->
<svg version="1.1" id="Calque_1" xmlns="http://www.w3.org/2000/svg" xmlns:xlink="http://www.w3.org/1999/xlink" x="0px" y="0px"
	 viewBox="0 0 240 130" style="enable-background:new 0 0 240 130;" xml:space="preserve">
<style type="text/css">
	.st0{fill:#FF4785;}
</style>
<path class="st0" d="M168.1,9.1c0-4.1-3-6.1-6.1-6.1h-7.1v14.2c0,0,0,1-1,1h-1l-3-4.1l-5.1,4.1h-1v-1l1-14.2l-68,5.1
	c-3,0-6.1,3-5.1,6.1l3,100.4c0,3,3,6.1,6.1,6.1l81.2,4.1c3,0,6.1-3,6.1-6.1V9.1z M122.5,101.4c-14.2,0-27.4-6.1-25.4-26.4
	c1-2,19.3-2,19.3,0c0,8.1,2,11.2,6.1,11.2c4.1,0,5.1-2,5.1-5.1c0-12.2-30.4-13.2-30.4-35.5c0-13.2,9.1-22.3,24.3-22.3
	c16.2,0,24.3,8.1,24.3,24.3c-2,2-18.3,3-18.3,0c0-9.1-4.1-9.1-6.1-9.1c-2,0-6.1,1-6.1,5.1c0,12.2,30.4,11.2,30.4,35.5
	C146.8,93.3,136.7,101.4,122.5,101.4z"/>
</svg>
