<?xml version="1.0" encoding="utf-8"?>
<!-- Generator: Adobe Illustrator 24.0.0, SVG Export Plug-In . SVG Version: 6.00 Build 0)  -->
<svg version="1.1" id="Calque_1" xmlns="http://www.w3.org/2000/svg" xmlns:xlink="http://www.w3.org/1999/xlink" x="0px" y="0px"
	 viewBox="0 0 240 130" style="enable-background:new 0 0 240 130;" xml:space="preserve">
<style type="text/css">
	.st0{fill:#87A0AF;}
	.st1{fill:#B4D2D7;}
	.st2{fill:#03232E;}
	.st3{fill:#07485E;}
	.st4{fill:#E1EBF0;}
	.st5{fill:#DAEBD4;}
	.st6{fill:#FCE0E1;}
	.st7{fill:#3DAA35;}
	.st8{fill:#E52420;}
</style>
<path class="st0" d="M144.8,125.5v-18.8l-30.9-5.9l5.9,24.7H144.8z"/>
<path class="st1" d="M94.7,125.5h25.1v-24.7l-25.1,5.9V125.5z"/>
<path class="st2" d="M119.7,0l-5.9,87.6l81.3-5.9V0H119.7z"/>
<path class="st3" d="M119.7,0H44.3v81.7l75.4,5.9V0z"/>
<path class="st1" d="M158.9,129.9v-8.8h-39.1l-2.9,4.4l2.9,4.4H158.9z"/>
<path class="st4" d="M80.6,121.1h39.1v8.8H80.6V121.1z"/>
<path class="st1" d="M119.7,106.7h75.4V81.7h-75.4l-5.9,12.5L119.7,106.7z"/>
<path class="st4" d="M44.3,81.7h75.4v25.1H44.3V81.7z"/>
<g>
	<path class="st5" d="M90.3,38h29.5v29.5H90.3V38z"/>
	<path class="st6" d="M119.7,38h29.5v29.5h-29.5V38z"/>
	<path class="st7" d="M90.2,8.6h29.5v29.5H90.2V8.6z"/>
	<path class="st8" d="M119.8,8.6h29.5v29.5h-29.5V8.6z"/>
	<path class="st7" d="M101.1,57.6l-5.2-5.2l-1.7,1.7l6.9,6.9l14.9-14.9l-1.7-1.7L101.1,57.6z"/>
	<path class="st8" d="M143.1,46l-1.4-1.4l-7.1,7.1l-7.2-7.2l-1.5,1.5l7.2,7.2l-6.6,6.6l1.4,1.4l6.6-6.6l6.7,6.7l1.5-1.5l-6.7-6.7
		L143.1,46z"/>
</g>
</svg>
